
; ASM FILE music04.asm :
; 0x9A5A..0xAB56 : Music 04
Music_4:        db 0
		db 0
		db 0
		db 0CCh
		dw Music_4_Channel_0
		dw Music_4_Channel_1
		dw Music_4_Channel_2
		dw Music_4_Channel_3
		dw Music_4_Channel_4
		dw Music_4_Channel_5
		dw Music_4_Channel_6
		dw Music_4_Channel_7
		dw Music_4_Channel_9
		dw Music_4_Channel_9
Music_4_Channel_0:
		  inst 8
		  vol 0Dh
		  setRelease 01h
		  vibrato 02Ch
		  stereo 040h
		        noteL G5,6
		mainLoopStart
		        noteL G5,24
		        noteL A5,6
		        waitL 18
		        noteL G5,24
		        noteL As5,6
		        waitL 18
		        noteL G5,24
		        noteL A5,6
		        waitL 18
		        noteL G5,24
		        noteL As5,6
		        waitL 18
		        noteL C6,6
		        waitL 12
		        noteL Cs6,6
		  sustain
		        noteL Cs6,72
		  setRelease 01h
		        noteL Cs6,90
		        noteL D6,6
		        noteL D6,24
		        noteL Ds6,6
		        waitL 18
		        noteL D6,24
		        noteL E6,6
		        waitL 18
		        noteL D6,24
		        noteL Ds6,6
		        waitL 18
		        noteL D6,24
		        noteL E6,6
		        waitL 18
		        noteL Fs6,6
		        waitL 12
		        noteL G6,6
		  sustain
		        noteL G6,72
		  setRelease 01h
		        noteL G6,48
		        noteL Fs6,36
		        waitL 12
		  inst 25
		  vol 0Dh
		  setRelease 03h
		  stereo 080h
		        noteL G4,6
		        note  G4
		        note  G4
		        note  G4
		        note  G4
		        note  G4
		        note  G4
		        note  G4
		        note  G4
		        note  G4
		        note  G4
		        note  G4
		        note  G4
		        note  G4
		        note  G4
		        note  G4
		        note  G4
		        note  G4
		        note  G4
		        note  G4
		        note  G4
		        note  G4
		        note  G4
		        note  G4
		  setRelease 00h
		        note  Fs4
		        note  G4
		        note  A4
		        note  As4
		        note  C5
		        note  D5
		        note  Ds5
		        note  Fs5
		        noteL D5,18
		        noteL Cs5,3
		        note  C5
		        noteL As4,48
		        waitL 12
		  inst 26
		  vol 0Bh
		  setRelease 01h
		  stereo 080h
		        noteL G6,6
		        note  G6
		        note  G6
		        wait
		        note  Fs6
		        note  Fs6
		        note  Fs6
		        wait
		        note  Ds6
		        note  Ds6
		        note  Ds6
		        wait
		        note  D6
		        note  D6
		        note  D6
		        waitL 18
		  inst 25
		  vol 0Dh
		  setRelease 03h
		  stereo 080h
		        noteL C5,6
		        note  C5
		        note  C5
		        note  C5
		        note  C5
		        note  C5
		        note  C5
		        note  C5
		        note  D5
		        note  D5
		        note  D5
		        note  D5
		        note  D5
		        note  D5
		        note  D5
		        note  D5
		        note  Ds5
		        note  Ds5
		        note  Ds5
		        note  Ds5
		        note  C5
		        note  C5
		        note  C5
		        note  C5
		        note  E5
		        note  E5
		        note  E5
		        note  E5
		        note  E5
		        note  E5
		        note  E5
		        note  E5
		        note  A5
		        waitL 12
		        noteL Fs5,6
		  sustain
		        noteL Fs5,72
		  setRelease 01h
		        noteL Fs5,96
		        noteL As5,6
		        waitL 18
		        noteL A5,6
		        waitL 42
		        noteL As5,6
		        waitL 18
		        noteL A5,6
		        waitL 42
		        noteL As5,12
		        note  A5
		        noteL As5,6
		        waitL 18
		        noteL A5,6
		        waitL 42
		        noteL As5,6
		        waitL 18
		        noteL A5,6
		        waitL 42
		        noteL As5,12
		        note  A5
		        note  As5
		        note  C6
		  sustain
		        noteL D6,96
		  setRelease 01h
		        noteL D6,72
		        waitL 24
		  inst 20
		  vol 0Dh
		  setRelease 05h
		  stereo 080h
		        noteL G4,30
		        waitL 12
		        noteL D4,6
		        noteL D4,60
		        waitL 12
		        noteL B3,24
		        note  D4
		        note  G4
		        noteL A4,30
		        waitL 12
		        noteL Cs5,6
		  sustain
		        noteL Cs5,72
		  setRelease 01h
		        noteL Cs5,12
		        wait
		        noteL A4,48
		        noteL B4,30
		        waitL 12
		        noteL G4,6
		        noteL G4,72
		        noteL D4,24
		        note  G4
		        note  B4
		        noteL Cs5,30
		        waitL 12
		        noteL E4,6
		  sustain
		        noteL E5,72
		  setRelease 01h
		        noteL E5,12
		        wait
		        noteL Cs5,48
		        noteL F5,30
		        waitL 12
		        noteL A4,6
		        noteL A4,72
		        noteL A4,24
		        note  C5
		        note  F5
		        noteL Fs5,30
		        waitL 12
		        noteL A4,6
		  sustain
		        noteL A4,48
		  setRelease 01h
		        noteL As4,12
		        wait
		        noteL As4,24
		        note  D5
		        note  G5
		        noteL As5,96
		        note  As5
		  inst 25
		  vol 0Bh
		  setRelease 03h
		  stereo 040h
		        noteL A6,6
		        note  A6
		        note  G6
		        note  G6
		        note  As6
		        note  As6
		        note  G6
		        note  G6
		        note  F6
		        note  F6
		        note  E6
		        note  E6
		        note  F6
		        note  F6
		        note  Cs6
		        note  Cs6
		        note  F6
		        note  F6
		        note  E6
		        note  E6
		        note  G6
		        note  G6
		        note  E6
		        note  E6
		        note  F6
		        note  F6
		        note  E6
		        note  E6
		        note  F6
		        note  F6
		        note  Cs6
		        note  Cs6
		        note  D6
		        note  D6
		        note  Cs6
		        note  Cs6
		        note  E6
		        note  E6
		        note  Cs6
		        note  Cs6
		        note  D6
		        note  D6
		        note  Cs6
		        note  Cs6
		        note  E6
		        note  E6
		        note  As5
		        note  As5
		        note  A5
		        note  A5
		        note  Gs5
		        note  Gs5
		        note  A5
		        note  A5
		        note  G5
		        note  G5
		        note  F5
		        note  F5
		        note  E5
		        note  E5
		        note  F5
		        note  F5
		        note  D5
		        note  D5
		        note  A4
		        note  A4
		        note  A4
		        note  A4
		        note  A4
		        note  A4
		        note  A4
		        note  A4
		        note  A4
		        note  A4
		        note  A4
		        note  A4
		        note  A4
		        note  A4
		        note  A4
		        note  A4
		        note  A4
		        note  A4
		        note  A4
		        note  A4
		        note  A4
		        note  A4
		        note  A4
		        note  A4
		        note  A4
		        note  A4
		        note  A4
		        note  A4
		        note  A4
		        note  A4
		        wait
		  inst 8
		  vol 0Ch
		  setRelease 01h
		  stereo 040h
		        note  G5
		mainLoopEnd
Music_4_Channel_1:
		  inst 8
		  vol 0Dh
		  setRelease 01h
		  vibrato 02Ch
		  stereo 040h
		        noteL B4,6
		mainLoopStart
		        noteL B4,24
		        noteL Cs5,6
		        waitL 18
		        noteL B4,24
		        noteL D5,6
		        waitL 18
		        noteL B4,24
		        noteL Cs5,6
		        waitL 18
		        noteL B4,24
		        noteL D5,6
		        waitL 18
		        noteL E5,6
		        waitL 12
		        noteL F5,6
		  sustain
		        noteL F5,72
		  setRelease 01h
		        noteL F5,90
		        noteL Fs5,6
		        noteL Fs5,24
		        noteL G5,6
		        waitL 18
		        noteL Fs5,24
		        noteL Gs5,6
		        waitL 18
		        noteL Fs5,24
		        noteL G5,6
		        waitL 18
		        noteL Fs5,24
		        noteL Gs5,6
		        waitL 18
		        noteL As5,6
		        waitL 12
		        noteL B5,6
		  sustain
		        noteL B5,72
		  setRelease 01h
		        noteL B5,48
		        noteL C6,24
		        noteL A5,12
		        wait
		  inst 25
		  vol 0Dh
		  setRelease 03h
		        noteL D4,6
		        note  D4
		        note  D4
		        note  D4
		        note  D4
		        note  D4
		        note  D4
		        note  D4
		        note  D4
		        note  D4
		        note  D4
		        note  D4
		        note  D4
		        note  D4
		        note  D4
		        note  D4
		        note  D4
		        note  D4
		        note  D4
		        note  D4
		        note  D4
		        note  D4
		        note  D4
		        note  D4
		  setRelease 00h
		        note  D4
		        note  E4
		        note  Fs4
		        note  G4
		        note  A4
		        note  As4
		        note  C5
		        note  D5
		        noteL As4,18
		        noteL A4,3
		        note  G4
		        noteL D4,48
		        waitL 12
		  inst 26
		  vol 0Bh
		  setRelease 01h
		  stereo 080h
		        noteL Ds6,6
		        note  Ds6
		        note  Ds6
		        wait
		        note  D6
		        note  D6
		        note  D6
		        wait
		        note  G5
		        note  G5
		        note  G5
		        wait
		        note  Fs5
		        note  Fs5
		        note  Fs5
		        waitL 18
		  inst 25
		  vol 0Dh
		  setRelease 03h
		  stereo 040h
		        noteL Fs4,6
		        note  Fs4
		        note  Fs4
		        note  Fs4
		        note  Fs4
		        note  Fs4
		        note  Fs4
		        note  Fs4
		        note  G4
		        note  G4
		        note  G4
		        note  G4
		        note  G4
		        note  G4
		        note  G4
		        note  G4
		        note  G4
		        note  G4
		        note  G4
		        note  G4
		        note  G4
		        note  G4
		        note  G4
		        note  G4
		        note  G4
		        note  G4
		        note  G4
		        note  G4
		        note  G4
		        note  G4
		        note  G4
		        note  G4
		        note  D5
		        waitL 12
		        noteL C5,6
		  sustain
		        noteL C5,72
		  setRelease 01h
		        noteL C5,48
		  inst 4
		  vol 08h
		  setRelease 00h
		  stereo 080h
		        noteL D4,4
		        note  D4
		  vol 09h
		        note  D4
		        note  D4
		  vol 0Ah
		        note  D4
		        note  D4
		  vol 0Bh
		        note  D4
		        note  D4
		  vol 0Ch
		        note  D4
		        note  D4
		  vol 0Dh
		        note  D4
		        note  D4
		  inst 25
		  vol 0Dh
		  setRelease 02h
		  stereo 040h
		        noteL D5,6
		        waitL 18
		        noteL Cs5,6
		        waitL 18
		  inst 4
		  vol 0Dh
		  setRelease 01h
		  stereo 080h
		        noteL G4,6
		        note  G4
		        note  G4
		        wait
		  inst 25
		  vol 0Dh
		  setRelease 02h
		  stereo 040h
		        note  D5
		        waitL 18
		        noteL Cs5,6
		        waitL 18
		  inst 4
		  vol 0Dh
		  setRelease 01h
		  stereo 080h
		        noteL G4,6
		        note  G4
		        note  G4
		        wait
		  inst 25
		  vol 0Dh
		  setRelease 02h
		  stereo 040h
		        note  D5
		        wait
		        note  Cs5
		        wait
		        note  D5
		        waitL 18
		        noteL Cs5,6
		        waitL 18
		  inst 4
		  vol 0Dh
		  setRelease 01h
		  stereo 080h
		        noteL G4,6
		        note  G4
		        note  G4
		        wait
		  inst 25
		  vol 0Dh
		  setRelease 02h
		  stereo 040h
		        note  D5
		        waitL 18
		        noteL Cs5,6
		        waitL 18
		  inst 4
		  setRelease 01h
		  vol 0Dh
		  stereo 080h
		        noteL G4,6
		        note  G4
		        note  G4
		        wait
		  inst 25
		  vol 0Dh
		  setRelease 02h
		  stereo 040h
		        noteL D5,12
		        note  Cs5
		        note  D5
		        note  E5
		  sustain
		        noteL Fs5,96
		  setRelease 01h
		        noteL Fs5,72
		        waitL 24
		        waitL 90
		  inst 15
		  vol 0Ah
		  setRelease 01h
		  stereo 040h
		        noteL G4,6
		  sustain
		        noteL G4,24
		  setRelease 01h
		        noteL G4,72
		        waitL 90
		        noteL E5,6
		  sustain
		        noteL E5,24
		  setRelease 01h
		        note  E5
		        noteL Cs5,48
		        waitL 90
		        noteL B4,6
		  sustain
		        noteL B4,24
		  setRelease 01h
		        noteL B4,72
		        waitL 90
		        noteL E5,6
		  sustain
		        noteL E5,24
		  setRelease 01h
		        note  E5
		        noteL Cs5,48
		        waitL 90
		        noteL C5,6
		  sustain
		        noteL C5,24
		  setRelease 01h
		        noteL C5,72
		        waitL 90
		        noteL D5,6
		  sustain
		        noteL D5,24
		  setRelease 01h
		        noteL D5,72
		  sustain
		        noteL Ds5,24
		  setRelease 01h
		        noteL Ds5,72
		  inst 4
		  vol 08h
		  setRelease 01h
		  stereo 080h
		        noteL A4,6
		        note  A4
		  vol 09h
		        note  A4
		        note  A4
		        note  A4
		  vol 0Ah
		        note  A4
		        note  A4
		        note  A4
		  vol 0Bh
		        note  A4
		        note  A4
		        note  A4
		  vol 0Ch
		        note  A4
		        note  A4
		        note  A4
		  vol 0Dh
		        note  A4
		        note  A4
		  vol 0Dh
		        noteL D4,24
		        note  D4
		        wait
		        note  D4
		        wait
		        note  D4
		        wait
		        note  D4
		        wait
		        note  D4
		        wait
		        note  D4
		        wait
		        note  D4
		        wait
		        note  D4
		        noteL A4,6
		        note  A4
		        note  A4
		  vol 0Ch
		        note  A4
		        note  A4
		        note  A4
		        note  A4
		  vol 0Bh
		        note  A4
		        note  A4
		        note  A4
		        note  A4
		  vol 0Ah
		        note  A4
		        note  A4
		        note  A4
		        note  A4
		        note  A4
		        note  A4
		        note  A4
		  vol 0Ah
		        note  A4
		        note  A4
		        note  A4
		  vol 0Bh
		        note  A4
		        note  A4
		        note  A4
		  vol 0Ch
		        note  A4
		        note  A4
		        note  A4
		  vol 0Dh
		        note  A4
		        note  A4
		        note  A4
		        note  A4
		  inst 8
		  vol 0Ch
		  setRelease 01h
		  stereo 040h
		        note  B4
		mainLoopEnd
Music_4_Channel_2:
		  inst 27
		  vol 0Ah
		  setRelease 03h
		  vibrato 02Ch
		        noteL E4,6
		mainLoopStart
		  vol 0Ah
		        noteL E4,24
		        noteL Fs3,6
		        waitL 18
		        noteL E4,24
		        noteL G3,6
		        waitL 18
		        noteL E4,24
		        noteL Fs3,6
		        waitL 18
		        noteL E4,24
		        noteL G3,6
		        waitL 18
		        noteL A4,6
		        waitL 12
		        noteL As4,6
		        noteL As3,12
		        wait
		        note  As3
		        wait
		        note  As3
		        wait
		        note  As3
		        wait
		        note  As3
		        wait
		        note  As3
		        wait
		        note  As3
		        waitL 6
		        note  B4
		        noteL B4,24
		        noteL C4,6
		        waitL 18
		        noteL B4,24
		        noteL B3,6
		        waitL 18
		        noteL B4,24
		        noteL C4,6
		        waitL 18
		        noteL B4,24
		        noteL B3,6
		        waitL 18
		        noteL Ds5,6
		        waitL 12
		        noteL E5,6
		        noteL E4,12
		        wait
		        note  E4
		        wait
		        note  E4
		        wait
		        note  E4
		        wait
		        note  E4
		        wait
		        note  Fs4
		        wait
		        note  D4
		        wait
		  setRelease 0Bh
		        noteL G3,24
		        note  G3
		        note  G3
		        note  G3
		        note  G3
		        note  G3
		        note  Fs3
		        note  Fs3
		        note  G3
		        note  G3
		        note  G3
		        note  G3
		        note  G3
		        note  G3
		        note  G3
		        note  G3
		        note  A3
		        note  A3
		        note  As3
		        note  As3
		        note  C4
		        note  C4
		        note  Cs4
		        note  Cs4
		        note  D4
		        note  D4
		        note  D4
		        note  D4
		        note  D4
		        note  D4
		        note  D4
		        note  D4
		  setRelease 03h
		        noteL G3,12
		        wait
		        note  Fs3
		        waitL 36
		        noteL G3,12
		        wait
		        note  Fs3
		        waitL 36
		        noteL G3,12
		        note  Fs3
		        note  G3
		        wait
		        note  Fs3
		        waitL 36
		        noteL G3,12
		        wait
		        note  Fs3
		        wait
		        waitL 24
		        noteL G3,12
		        note  Fs3
		        note  G3
		        note  A3
		  setRelease 0Bh
		  vol 0Ch
		        noteL B3,24
		        note  B3
		        note  B3
		        note  B3
		        note  B3
		        note  B3
		        note  B3
		        note  B3
		        note  G3
		        note  G3
		        note  G3
		        note  G3
		        note  G3
		        note  G3
		        note  G3
		        note  G3
		        note  G3
		        note  G3
		        note  G3
		        note  G3
		        note  G3
		        note  G3
		        note  G3
		        note  G3
		        note  E4
		        note  E4
		        note  E4
		        note  E4
		        note  E4
		        note  E4
		        note  E4
		        note  E4
		        note  Fs4
		        note  Fs4
		        note  Fs4
		        note  Fs4
		        note  Fs4
		        note  Fs4
		        note  Fs4
		        note  Fs4
		        note  F4
		        note  F4
		        note  F4
		        note  F4
		        note  F4
		        note  F4
		        note  F4
		        note  F4
		        note  E4
		        note  E4
		        note  E4
		        note  E4
		        note  Ds4
		        note  Ds4
		        note  Ds4
		        note  Ds4
		        note  A3
		        note  A3
		        note  A3
		        note  A3
		        note  A3
		        note  A3
		        note  A3
		        note  A3
		        wait
		        note  D3
		        wait
		        note  D3
		        wait
		        note  D3
		        wait
		        note  D3
		        wait
		        note  D3
		        wait
		        note  D3
		        wait
		        note  D3
		        wait
		        note  D3
		  sustain
		        noteL A3,96
		  setRelease 01h
		        noteL A3,90
		        noteL E4,6
		mainLoopEnd
Music_4_Channel_3:
		  inst 25
		  vol 0Dh
		  setRelease 03h
		  vibrato 02Ch
		  stereo 080h
		        waitL 6
		mainLoopStart
		        waitL 24
		        noteL Cs4,6
		        waitL 42
		        noteL D4,6
		        waitL 18
		        waitL 24
		        noteL Cs4,6
		        waitL 42
		        noteL D4,6
		        waitL 18
		  vol 0Bh
		        noteL F5,6
		        note  F5
		        note  Ds5
		        note  Ds5
		        note  F5
		        note  F5
		        note  Ds5
		        note  Ds5
		        note  F5
		        note  F5
		        note  Ds5
		        note  Ds5
		        note  Cs5
		        note  Cs5
		        note  Ds5
		        note  Ds5
		        note  F5
		        note  F5
		        note  Ds5
		        note  Ds5
		        note  F5
		        note  F5
		        note  Fs5
		        note  Fs5
		        note  F5
		        note  F5
		        note  Ds5
		        note  Ds5
		        note  Cs5
		        note  Cs5
		        note  C5
		        note  C5
		  vol 0Dh
		        waitL 24
		        noteL C4,6
		        waitL 42
		        noteL B3,6
		        waitL 18
		        waitL 24
		        noteL C4,6
		        waitL 42
		        noteL B3,6
		        waitL 18
		  vol 0Bh
		        noteL B5,6
		        note  B5
		        note  As5
		        note  As5
		        note  B5
		        note  B5
		        note  As5
		        note  As5
		        note  B5
		        note  B5
		        note  A5
		        note  A5
		        note  G5
		        note  G5
		        note  A5
		        note  A5
		        note  B5
		        note  B5
		        note  As5
		        note  As5
		        note  B5
		        note  B5
		        note  Cs6
		        note  Cs6
		        note  D6
		        note  D6
		        note  Cs6
		        note  Cs6
		        note  D6
		        note  D6
		        note  Fs6
		        note  Fs6
		  inst 20
		  vol 0Dh
		  setRelease 03h
		  stereo 0C0h
		        noteL G6,24
		        note  Fs6
		        note  D6
		        note  F6
		        note  E6
		        note  Cs6
		        note  Ds6
		        note  C6
		  setRelease 00h
		        noteL G6,18
		        noteL Fs6,3
		        note  Ds6
		  sustain
		        noteL D6,72
		  setRelease 01h
		        noteL D6,96
		  setRelease 03h
		        noteL A5,24
		        note  Fs5
		        note  G5
		        note  As5
		        note  G5
		        note  Ds5
		        note  Cs6
		        note  A5
		        noteL D6,6
		        waitL 12
		        noteL D6,6
		  sustain
		        noteL D6,72
		  setRelease 01h
		        noteL D6,96
		  inst 25
		  vol 0Dh
		  setRelease 02h
		  stereo 080h
		        noteL As5,6
		        waitL 18
		        noteL A5,6
		        waitL 18
		  stereo 0C0h
		  vol 0Bh
		        noteL D4,6
		        note  D4
		        note  D4
		        wait
		  stereo 080h
		  vol 0Dh
		        note  As5
		        waitL 18
		        noteL A5,6
		        waitL 18
		  stereo 0C0h
		  vol 0Bh
		        noteL D4,6
		        note  D4
		        note  D4
		        wait
		  stereo 080h
		  vol 0Dh
		        note  As5
		        wait
		        note  A5
		        wait
		        note  As5
		        waitL 18
		        noteL A5,6
		        waitL 18
		  stereo 0C0h
		  vol 0Bh
		        noteL D4,6
		        note  D4
		        note  D4
		        wait
		  vol 0Dh
		  stereo 080h
		        note  As5
		        waitL 18
		        noteL A5,6
		        waitL 18
		  stereo 0C0h
		  vol 0Bh
		        noteL D4,6
		        note  D4
		        note  D4
		        wait
		  setRelease 00h
		  vol 0Dh
		  stereo 040h
		        noteL Fs5,5
		        note  Gs5
		        noteL As5,4
		        note  B5
		        note  Cs6
		        note  D6
		        noteL As5,5
		        note  B5
		        noteL Cs6,4
		        note  D6
		        note  E6
		  vol 0Bh
		  setRelease 03h
		        noteL Fs6,6
		        note  Fs6
		        note  E6
		        note  E6
		        note  Fs6
		        note  Fs6
		        note  E6
		        note  E6
		        note  Fs6
		        note  Fs6
		        note  E6
		        note  E6
		        note  D6
		        note  D6
		        note  E6
		        note  E6
		        note  Fs6
		        note  Fs6
		        note  E6
		        note  E6
		        note  Fs6
		        note  Fs6
		        note  G6
		        note  G6
		        note  Fs6
		        note  Fs6
		        note  E6
		        note  E6
		        note  D6
		        note  D6
		        note  Cs6
		        note  Cs6
		  inst 20
		  vol 0Dh
		  setRelease 05h
		  stereo 080h
		        noteL D5,30
		        waitL 12
		        noteL B4,6
		        noteL B4,72
		        noteL G4,24
		        note  B4
		        note  D5
		        noteL E5,30
		        waitL 12
		        noteL A5,6
		  sustain
		        noteL A5,72
		  setRelease 01h
		        noteL A5,12
		        wait
		        noteL E5,48
		        noteL G5,30
		        waitL 12
		        noteL D5,6
		        noteL D5,72
		        noteL B4,24
		        note  D5
		        note  G5
		        noteL A5,30
		        waitL 12
		        noteL Cs5,6
		  sustain
		        noteL Cs6,72
		  setRelease 01h
		        noteL Cs6,12
		        wait
		        noteL A5,48
		        noteL C6,30
		        waitL 12
		        noteL F5,6
		        noteL F5,72
		        noteL F5,24
		        note  A5
		        note  C6
		        noteL D6,30
		        waitL 12
		        noteL Fs5,6
		        noteL Fs5,48
		        noteL G5,12
		        wait
		        noteL G5,24
		        note  As5
		        note  D6
		        noteL G6,96
		        note  G6
		        noteL F6,6
		        waitL 18
		        noteL E6,24
		        noteL F6,6
		        waitL 18
		        noteL Cs6,24
		        noteL D6,6
		        waitL 18
		        noteL E6,24
		        noteL F6,6
		        waitL 18
		        noteL As5,24
		        noteL A5,6
		        waitL 18
		        noteL Cs6,24
		        noteL D6,6
		        waitL 18
		        noteL G5,24
		        noteL F5,6
		        waitL 18
		        noteL As5,24
		        noteL A5,6
		        waitL 18
		        noteL D5,24
		        noteL Cs5,96
		        note  Cs5
		mainLoopEnd
Music_4_Channel_4:
		  inst 25
		  vol 0Dh
		  setRelease 03h
		  vibrato 02Ch
		  stereo 080h
		        waitL 6
		mainLoopStart
		        waitL 24
		        noteL A4,6
		        waitL 18
		        waitL 24
		        noteL G4,6
		        waitL 18
		        waitL 24
		        noteL A4,6
		        waitL 18
		        waitL 24
		        noteL G4,6
		        waitL 18
		  vol 0Bh
		  setRelease 03h
		        noteL Cs6,6
		        note  Cs6
		        note  C6
		        note  C6
		        note  Cs6
		        note  Cs6
		        note  C6
		        note  C6
		        note  Cs6
		        note  Cs6
		        note  C6
		        note  C6
		        note  As5
		        note  As5
		        note  C6
		        note  C6
		        note  Cs6
		        note  Cs6
		        note  C6
		        note  C6
		        note  Cs6
		        note  Cs6
		        note  Ds6
		        note  Ds6
		        note  Cs6
		        note  Cs6
		        note  C6
		        note  C6
		        note  As5
		        note  As5
		        note  A5
		        note  A5
		  vol 0Dh
		        waitL 24
		        noteL G4,6
		        waitL 18
		        waitL 24
		        noteL Fs4,6
		        waitL 18
		        waitL 24
		        noteL G4,6
		        waitL 18
		        waitL 24
		        noteL Fs4,6
		        waitL 18
		  vol 0Bh
		        noteL G6,6
		        note  G6
		        note  Fs6
		        note  Fs6
		        note  G6
		        note  G6
		        note  Fs6
		        note  Fs6
		        note  G6
		        note  G6
		        note  Fs6
		        note  Fs6
		        note  E6
		        note  E6
		        note  Fs6
		        note  Fs6
		        note  G6
		        note  G6
		        note  Fs6
		        note  Fs6
		        note  G6
		        note  G6
		        note  A6
		        note  A6
		        note  As6
		        note  As6
		        note  A6
		        note  A6
		        note  As6
		        note  As6
		        note  C7
		        note  C7
		  inst 20
		  vol 0Bh
		  setRelease 03h
		  stereo 0C0h
		        noteL Ds7,24
		        note  D7
		        note  As6
		        note  D7
		        note  Cs7
		        note  A6
		        note  C7
		        note  A6
		  setRelease 00h
		        noteL As6,18
		        noteL A6,3
		        note  Gs6
		  sustain
		        noteL G6,72
		  setRelease 01h
		        noteL G6,96
		  setRelease 03h
		        noteL Ds6,24
		        note  D6
		        note  As5
		        note  D6
		        note  C6
		        note  A5
		        note  G6
		        note  E6
		        noteL Fs6,6
		        waitL 12
		        noteL A6,6
		  sustain
		        noteL A6,72
		  setRelease 01h
		        noteL A6,96
		  inst 25
		  vol 0Dh
		  setRelease 02h
		  stereo 080h
		        noteL D6,6
		        waitL 18
		        noteL Fs6,6
		        waitL 18
		  stereo 0C0h
		  vol 0Bh
		        noteL G4,6
		        note  G4
		        note  G4
		        wait
		  vol 0Dh
		  stereo 080h
		        note  D6
		        waitL 18
		        noteL Fs6,6
		        waitL 18
		  stereo 0C0h
		  vol 0Bh
		        noteL G4,6
		        note  G4
		        note  G4
		        wait
		  vol 0Dh
		  stereo 080h
		        note  D6
		        wait
		        note  Fs6
		        wait
		        note  D6
		        waitL 18
		        noteL Fs6,6
		        waitL 18
		  stereo 0C0h
		  vol 0Bh
		        noteL G4,6
		        note  G4
		        note  G4
		        wait
		  vol 0Dh
		  stereo 080h
		        note  D6
		        waitL 18
		        noteL Fs6,6
		        waitL 18
		  stereo 0C0h
		  vol 0Bh
		        noteL G4,6
		        note  G4
		        note  G4
		        wait
		  stereo 080h
		  vol 0Dh
		  setRelease 00h
		        noteL B5,4
		        note  Cs6
		        note  D6
		        note  E6
		        note  Fs6
		        note  Gs6
		        note  As6
		        note  Fs6
		        note  Gs6
		        note  As6
		        note  B6
		        note  Cs7
		  setRelease 03h
		  vol 0Bh
		        noteL D7,6
		        note  D7
		        note  Cs7
		        note  Cs7
		        note  D7
		        note  D7
		        note  Cs7
		        note  Cs7
		        note  D7
		        note  D7
		        note  Cs7
		        note  Cs7
		        note  B6
		        note  B6
		        note  Cs7
		        note  Cs7
		        note  D7
		        note  D7
		        note  Cs7
		        note  Cs7
		        note  D7
		        note  D7
		        note  E7
		        note  E7
		        note  D7
		        note  D7
		        note  Cs7
		        note  Cs7
		        note  B6
		        note  B6
		        note  As6
		        note  As6
		  inst 20
		  vol 0Dh
		  setRelease 05h
		  stereo 080h
		        noteL B5,30
		        waitL 12
		        noteL G5,6
		        noteL G5,72
		        noteL D5,24
		        note  G5
		        note  B5
		        noteL Cs6,30
		        waitL 12
		        noteL E6,6
		  sustain
		        noteL E6,48
		  setRelease 01h
		        noteL E6,36
		        waitL 12
		        noteL Cs6,48
		        noteL D6,30
		        waitL 12
		        noteL B5,6
		        noteL B5,72
		        noteL G5,24
		        note  B5
		        note  D6
		        noteL E6,30
		        waitL 12
		        noteL A5,6
		  sustain
		        noteL A6,48
		  setRelease 01h
		        noteL A6,36
		        waitL 12
		        noteL E6,48
		        noteL A6,30
		        waitL 12
		        noteL C6,6
		        noteL C6,72
		        noteL C6,24
		        note  F6
		        note  A6
		        noteL A6,30
		        waitL 12
		        noteL D6,6
		        noteL D6,72
		        noteL D6,24
		        note  G6
		        note  As6
		        noteL Ds7,96
		        note  Cs7
		        noteL D7,6
		        waitL 18
		        noteL Cs7,24
		        noteL D7,6
		        waitL 18
		        noteL As6,24
		        noteL A6,6
		        waitL 18
		        noteL Gs6,24
		        noteL A6,6
		        waitL 18
		        noteL G6,24
		        noteL F6,6
		        waitL 18
		        noteL E6,24
		        noteL F6,6
		        waitL 18
		        noteL E6,24
		        noteL D6,6
		        waitL 18
		        noteL Cs6,24
		        noteL D6,6
		        waitL 18
		        noteL As5,24
		  sustain
		        noteL A5,96
		  setRelease 01h
		        note  A5
		mainLoopEnd
Music_4_Channel_5:
		        waitL 6
		mainLoopStart
		countedLoopStart 1
		        waitL 12
		        sampleL 3,3
		        sample  3
		        sample  2
		        sample  2
		        sampleL 1,36
		        sampleL 3,3
		        sample  3
		        sample  2
		        sample  2
		        sampleL 1,24
		countedLoopEnd
		        sampleL 1,18
		        sampleL 1,6
		        sampleL 1,3
		        sample  2
		        sample  2
		        sample  3
		        sample  3
		        sample  3
		        sample  3
		        sample  3
		        sampleL 1,12
		        sampleL 3,3
		        sample  3
		        sample  2
		        sample  2
		        sampleL 1,12
		        sampleL 3,3
		        sample  3
		        sample  2
		        sample  2
		        sampleL 1,12
		        sampleL 3,3
		        sample  3
		        sample  2
		        sample  2
		        sampleL 1,12
		        sampleL 3,3
		        sample  3
		        sample  2
		        sample  2
		        sampleL 1,12
		        sampleL 3,3
		        sample  3
		        sample  2
		        sample  2
		        sampleL 1,24
		countedLoopStart 1
		        waitL 12
		        sampleL 3,3
		        sample  3
		        sample  2
		        sample  2
		        sampleL 1,36
		        sampleL 3,3
		        sample  3
		        sample  2
		        sample  2
		        sampleL 1,24
		countedLoopEnd
		        sampleL 1,18
		        sampleL 1,6
		        sampleL 1,3
		        sample  2
		        sample  2
		        sample  3
		        sample  3
		        sample  3
		        sample  3
		        sample  3
		        sampleL 1,12
		        sampleL 3,3
		        sample  3
		        sample  2
		        sample  2
		        sampleL 1,12
		        sampleL 3,3
		        sample  3
		        sample  2
		        sample  2
		countedLoopStart 16
		        sampleL 1,12
		        sampleL 3,3
		        sample  3
		        sample  2
		        sample  2
		        sampleL 1,12
		        sampleL 3,3
		        sample  3
		        sample  2
		        sample  2
		countedLoopEnd
		        sampleL 1,12
		        sampleL 3,3
		        sample  3
		        sample  2
		        sample  2
		        sampleL 1,6
		        sample  1
		        sample  1
		        sample  1
		        waitL 48
		        sampleL 1,6
		        sample  1
		        sampleL 1,12
		        waitL 48
		        sampleL 1,6
		        sample  1
		        sampleL 1,12
		        waitL 72
		        sampleL 1,6
		        sample  1
		        sampleL 1,12
		        waitL 48
		        sampleL 1,6
		        sample  1
		        sampleL 1,12
		        waitL 48
		countedLoopStart 14
		        sampleL 1,12
		        sampleL 3,3
		        sample  3
		        sample  2
		        sample  2
		        sampleL 1,12
		        sampleL 3,3
		        sample  3
		        sample  2
		        sample  2
		        sampleL 1,12
		        sampleL 3,3
		        sample  3
		        sample  2
		        sample  2
		        sampleL 1,12
		        sampleL 3,3
		        sample  3
		        sample  2
		        sample  2
		countedLoopEnd
		        sampleL 1,12
		        sampleL 3,3
		        sample  3
		        sample  2
		        sample  2
		        sampleL 1,12
		        sampleL 3,3
		        sample  3
		        sample  2
		        sample  2
		        sampleL 3,6
		        sample  3
		        sample  3
		        sample  2
		        sample  2
		        sample  2
		        sample  1
		        sample  1
		countedLoopStart 3
		        sampleL 1,24
		        sampleL 1,3
		        sample  2
		        sample  3
		        sample  3
		        sample  3
		        sample  3
		        sample  3
		        sample  3
		        sampleL 1,24
		        sampleL 1,3
		        sample  2
		        sample  3
		        sample  3
		        sample  3
		        sample  3
		        sample  3
		        sample  3
		countedLoopEnd
		        sampleL 1,3
		        sample  2
		        sample  2
		        sample  3
		        sample  3
		        sample  3
		        sample  3
		        sample  3
		        sample  3
		        sample  3
		        sample  3
		        sample  3
		        sample  3
		        sample  3
		        sample  3
		        sample  3
		        sample  3
		        sample  3
		        sample  3
		        sample  3
		        sample  3
		        sample  3
		        sample  3
		        sample  3
		        sample  3
		        sample  3
		        sample  3
		        sample  3
		        sample  3
		        sample  3
		        sample  3
		        sample  3
		        sample  3
		        sample  3
		        sample  3
		        sample  3
		        sample  3
		        sample  3
		        sample  3
		        sample  3
		        sample  3
		        sample  3
		        sample  3
		        sample  3
		        sample  3
		        sample  3
		        sample  3
		        sample  3
		        sampleL 3,6
		        sample  3
		        sample  3
		        sample  2
		        sample  2
		        sample  2
		        sample  1
		        sample  1
		mainLoopEnd
Music_4_Channel_6:
		  psgInst 00h
		  setRelease 00h
		  vibrato 04Ch
		        waitL    6
		mainLoopStart
		        waitL    12
		  psgInst 0Ah
		        psgNoteL E4,3
		        psgNoteL Fs4,2
		        psgNoteL G4,1
		        psgNoteL A4,2
		        psgNoteL B4,1
		        psgNoteL Cs5,2
		        psgNoteL Ds5,1
		        psgNoteL E5,6
		  psgInst 00h
		        waitL    30
		  psgInst 0Ah
		        psgNoteL E4,3
		        psgNoteL Fs4,2
		        psgNoteL G4,1
		        psgNoteL A4,2
		        psgNoteL As4,1
		        psgNoteL Cs5,2
		        psgNoteL Ds5,1
		        psgNoteL E5,6
		  psgInst 00h
		        waitL    18
		  psgInst 00h
		        waitL    12
		  psgInst 0Ah
		        psgNoteL E4,3
		        psgNoteL Fs4,2
		        psgNoteL G4,1
		        psgNoteL A4,2
		        psgNoteL B4,1
		        psgNoteL Cs5,2
		        psgNoteL Ds5,1
		        psgNoteL E5,6
		  psgInst 00h
		        waitL    30
		  psgInst 0Ah
		        psgNoteL E4,3
		        psgNoteL Fs4,2
		        psgNoteL G4,1
		        psgNoteL A4,2
		        psgNoteL As4,1
		        psgNoteL Cs5,2
		        psgNoteL Ds5,1
		        psgNoteL E5,6
		  psgInst 00h
		        waitL    18
		  psgInst 0Bh
		  setRelease 01h
		        psgNoteL C5,6
		  psgInst 00h
		        waitL    12
		  psgInst 0Bh
		        psgNoteL Cs5,6
		  setRelease 00h
		  psgInst 0Ah
		        psgNoteL Cs5,3
		        psgNote  Ds5
		        psgNote  Cs5
		        psgNote  Ds5
		        psgNote  Cs5
		        psgNote  Ds5
		        psgNote  Cs5
		        psgNote  Ds5
		        psgNote  Cs5
		        psgNote  Ds5
		        psgNote  Cs5
		        psgNote  Ds5
		        psgNote  Cs5
		        psgNote  Ds5
		        psgNote  Cs5
		        psgNote  Ds5
		        psgNote  Cs5
		        psgNote  Ds5
		        psgNote  Cs5
		        psgNote  Ds5
		        psgNote  Cs5
		        psgNote  Ds5
		        psgNote  Cs5
		        psgNote  Ds5
		        psgNote  Cs5
		        psgNote  Ds5
		        psgNote  Cs5
		        psgNote  Ds5
		        psgNote  Cs5
		        psgNote  Ds5
		        psgNote  Cs5
		        psgNote  Ds5
		        psgNote  Cs5
		        psgNote  Ds5
		        psgNote  Cs5
		        psgNote  Ds5
		        psgNote  Cs5
		        psgNote  Ds5
		        psgNote  Cs5
		        psgNote  Ds5
		        psgNote  Cs5
		        psgNote  Ds5
		        psgNote  Cs5
		        psgNote  Ds5
		        psgNote  Cs5
		        psgNote  Ds5
		        psgNote  Cs5
		        psgNote  Ds5
		        psgNote  Cs5
		        psgNote  Ds5
		        psgNote  Cs5
		        psgNote  Ds5
		        psgNote  Cs5
		  psgInst 00h
		        waitL    9
		        waitL    12
		  psgInst 0Ah
		        psgNoteL Ds4,3
		        psgNoteL F4,2
		        psgNoteL G4,1
		        psgNoteL A4,2
		        psgNoteL B4,1
		        psgNoteL C5,2
		        psgNoteL D5,1
		        psgNoteL Ds5,6
		  psgInst 00h
		        waitL    30
		  psgInst 0Ah
		        psgNoteL E4,3
		        psgNoteL Fs4,2
		        psgNoteL G4,1
		        psgNoteL A4,2
		        psgNoteL B4,1
		        psgNoteL Cs5,2
		        psgNoteL Ds5,1
		        psgNoteL E5,6
		  psgInst 00h
		        waitL    18
		        waitL    12
		  psgInst 0Ah
		        psgNoteL Ds4,3
		        psgNoteL F4,2
		        psgNoteL G4,1
		        psgNoteL A4,2
		        psgNoteL B4,1
		        psgNoteL C5,2
		        psgNoteL D5,1
		        psgNoteL Ds5,6
		  psgInst 00h
		        waitL    30
		  psgInst 0Ah
		        psgNoteL E4,3
		        psgNoteL Fs4,2
		        psgNoteL G4,1
		        psgNoteL A4,2
		        psgNoteL B4,1
		        psgNoteL Cs5,2
		        psgNoteL Ds5,1
		        psgNoteL E5,6
		  psgInst 00h
		        waitL    18
		  setRelease 01h
		  psgInst 0Bh
		        psgNoteL Fs5,6
		  psgInst 00h
		        waitL    12
		  psgInst 0Bh
		        psgNoteL G5,6
		  setRelease 00h
		  psgInst 0Ah
		        psgNoteL G5,3
		        psgNote  A5
		        psgNote  G5
		        psgNote  A5
		        psgNote  G5
		        psgNote  A5
		        psgNote  G5
		        psgNote  A5
		        psgNote  G5
		        psgNote  A5
		        psgNote  G5
		        psgNote  A5
		        psgNote  G5
		        psgNote  A5
		        psgNote  G5
		        psgNote  A5
		        psgNote  G5
		        psgNote  A5
		        psgNote  G5
		        psgNote  A5
		        psgNote  G5
		        psgNote  A5
		        psgNote  G5
		        psgNote  A5
		        psgNote  G5
		        psgNote  A5
		        psgNote  G5
		        psgNote  A5
		        psgNote  G5
		        psgNote  A5
		        psgNote  G5
		        psgNote  A5
		        psgNote  G5
		        psgNote  A5
		        psgNote  G5
		        psgNote  A5
		        psgNote  G5
		  psgInst 00h
		        waitL    9
		  psgInst 0Ch
		  setRelease 01h
		        psgNoteL Fs4,6
		        psgNote  G4
		        psgNote  A4
		        psgNote  As4
		        psgNote  C5
		        psgNote  D5
		        psgNote  E5
		        psgNote  Fs5
		  psgInst 00h
		        waitL    96
		        wait
		        waitL    48
		  setRelease 01h
		  psgInst 0Bh
		        psgNoteL D5,18
		        psgNoteL Cs5,3
		        psgNote  C5
		  setRelease 00h
		        psgNoteL As4,18
		  psgInst 0Ah
		        psgNoteL C5,3
		        psgNote  As4
		        psgNote  C5
		        psgNote  As4
		        psgNote  C5
		        psgNote  As4
		        psgNote  C5
		        psgNote  As4
		        psgNote  C5
		        psgNote  As4
		        psgNote  C5
		        psgNote  As4
		        psgNote  C5
		        psgNote  As4
		        psgNote  C5
		        psgNote  As4
		        psgNote  C5
		        psgNote  As4
		        psgNote  C5
		        psgNote  As4
		        psgNote  C5
		        psgNote  As4
		        psgNote  C5
		        psgNote  As4
		        psgNote  C5
		        psgNote  As4
		        psgNote  C5
		        psgNote  As4
		        psgNote  C5
		        psgNote  As4
		        psgNote  C5
		        psgNote  As4
		        psgNote  C5
		  psgInst 00h
		        wait
		        waitL    96
		        wait
		        waitL    48
		  setRelease 01h
		  psgInst 0Bh
		        psgNoteL Fs5,6
		  psgInst 00h
		        waitL    12
		  psgInst 0Bh
		        psgNoteL A5,6
		        psgNoteL A5,3
		  setRelease 00h
		  psgInst 09h
		        psgNote  As5
		        psgNote  A5
		        psgNote  As5
		        psgNote  A5
		        psgNote  As5
		        psgNote  A5
		        psgNote  As5
		        psgNote  A5
		        psgNote  As5
		        psgNote  A5
		        psgNote  As5
		        psgNote  A5
		        psgNote  As5
		        psgNote  A5
		        psgNote  As5
		        psgNote  A5
		        psgNote  As5
		        psgNote  A5
		        psgNote  As5
		        psgNote  A5
		        psgNote  As5
		        psgNote  A5
		        psgNote  As5
		        psgNote  A5
		        psgNote  As5
		        psgNote  A5
		        psgNote  As5
		        psgNote  A5
		        psgNote  As5
		        psgNote  A5
		        psgNote  As5
		        psgNote  A5
		        psgNote  As5
		        psgNote  A5
		        psgNote  As5
		        psgNote  A5
		        psgNote  As5
		        psgNote  A5
		  psgInst 00h
		        wait
		  setRelease 01h
		  psgInst 0Bh
		        psgNoteL As5,6
		  psgInst 00h
		        waitL    18
		  psgInst 0Bh
		        psgNoteL A5,6
		  psgInst 00h
		        waitL    42
		  psgInst 0Bh
		        psgNoteL As5,6
		  psgInst 00h
		        waitL    18
		  psgInst 0Bh
		        psgNoteL A5,6
		  psgInst 00h
		        waitL    42
		  psgInst 0Bh
		        psgNoteL As5,12
		        psgNote  A5
		        psgNoteL As5,6
		  psgInst 00h
		        waitL    18
		  psgInst 0Bh
		        psgNoteL A5,6
		  psgInst 00h
		        waitL    42
		  psgInst 0Bh
		        psgNoteL As5,6
		  psgInst 00h
		        waitL    18
		  psgInst 0Bh
		        psgNoteL A5,6
		  psgInst 00h
		        waitL    18
		        waitL    24
		  psgInst 0Bh
		  setRelease 03h
		        psgNoteL As5,6
		        psgNote  As5
		        psgNote  A5
		        psgNote  A5
		        psgNote  As5
		        psgNote  As5
		        psgNote  C6
		        psgNote  C6
		        psgNoteL D5,3
		  psgInst 0Ah
		  setRelease 00h
		        psgNote  E5
		        psgNote  D5
		        psgNote  E5
		        psgNote  D5
		        psgNote  E5
		        psgNote  D5
		        psgNote  E5
		        psgNote  D5
		        psgNote  E5
		        psgNote  D5
		        psgNote  E5
		        psgNote  D5
		        psgNote  E5
		        psgNote  D5
		        psgNote  E5
		        psgNote  D5
		        psgNote  E5
		        psgNote  D5
		        psgNote  E5
		        psgNote  D5
		        psgNote  E5
		        psgNote  D5
		        psgNote  E5
		        psgNote  D5
		        psgNote  E5
		        psgNote  D5
		        psgNote  E5
		        psgNote  D5
		        psgNote  E5
		        psgNote  D5
		        psgNote  E5
		        psgNote  D5
		        psgNote  E5
		        psgNote  D5
		        psgNote  E5
		        psgNote  D5
		        psgNote  E5
		        psgNote  D5
		        psgNote  E5
		        psgNote  D5
		        psgNote  E5
		        psgNote  D5
		        psgNote  E5
		        psgNote  D5
		        psgNote  E5
		        psgNote  D5
		        psgNote  E5
		  psgInst 0Bh
		        psgNote  D5
		        psgNote  Gs4
		        psgNote  As4
		        psgNote  B4
		        psgNote  Cs5
		        psgNote  D5
		        psgNote  E5
		        psgNote  Fs5
		        psgNote  E5
		        psgNote  D5
		        psgNote  Cs5
		        psgNote  B4
		        psgNote  A4
		        psgNote  G4
		  psgInst 00h
		        waitL    30
		        waitL    96
		        wait
		        waitL    48
		  setRelease 01h
		  psgInst 0Ah
		        psgNoteL A4,6
		        psgNote  B4
		        psgNote  Cs5
		        psgNote  Ds5
		        psgNote  A5
		        psgNote  Gs5
		        psgNote  Fs5
		        psgNote  E5
		        psgNote  Gs5
		        psgNote  Fs5
		        psgNote  E5
		        psgNote  Ds5
		        psgNote  Fs5
		        psgNote  E5
		        psgNote  Ds5
		        psgNote  Cs5
		        psgNote  B4
		        psgNote  A4
		        psgNote  Gs4
		        psgNote  Fs4
		  psgInst 00h
		        waitL    24
		        waitL    96
		        wait
		        waitL    48
		  psgInst 0Ah
		  setRelease 00h
		        psgNoteL A3,3
		        psgNoteL B3,4
		        psgNoteL Cs4,3
		        psgNoteL D4,4
		        psgNoteL E4,3
		        psgNoteL Fs4,4
		        psgNoteL Gs4,3
		        psgNoteL A4,6
		  psgInst 00h
		        waitL    18
		  psgInst 0Ah
		        psgNoteL Cs4,3
		        psgNote  D4
		        psgNoteL E4,4
		        psgNoteL Fs4,3
		        psgNoteL Gs4,4
		        psgNoteL A4,3
		        psgNoteL B4,4
		        psgNoteL Cs5,6
		  psgInst 00h
		        waitL    18
		  psgInst 0Ah
		        psgNoteL E4,3
		        psgNoteL Fs4,4
		        psgNoteL Gs4,3
		        psgNoteL A4,4
		        psgNoteL As4,3
		        psgNoteL Cs5,4
		        psgNoteL Ds5,3
		        psgNoteL F5,6
		  psgInst 00h
		        waitL    18
		        waitL    96
		        wait
		        wait
		        wait
		        waitL    72
		  setRelease 00h
		  psgInst 0Ah
		        psgNoteL Cs5,4
		        psgNote  D5
		        psgNote  Cs5
		        psgNote  D5
		        psgNote  Cs5
		        psgNote  D5
		        psgNote  Cs5
		        psgNote  D5
		        psgNote  Cs5
		        psgNote  D5
		        psgNote  Cs5
		        psgNote  D5
		        psgNote  Cs5
		        psgNote  D5
		        psgNote  Cs5
		        psgNote  D5
		        psgNote  Cs5
		        psgNote  D5
		        psgNote  Cs5
		        psgNote  D5
		        psgNote  Cs5
		        psgNote  D5
		        psgNote  Cs5
		        psgNote  D5
		  psgInst 0Bh
		  setRelease 01h
		        psgNoteL D5,6
		  psgInst 00h
		        waitL    18
		  psgInst 0Bh
		        psgNoteL Cs4,24
		        psgNoteL D4,6
		  psgInst 00h
		        waitL    18
		  psgInst 0Bh
		        psgNoteL E4,24
		        psgNoteL F4,6
		  psgInst 00h
		        waitL    18
		  psgInst 0Bh
		        psgNoteL E4,24
		        psgNoteL F4,6
		  psgInst 00h
		        waitL    18
		  psgInst 0Bh
		        psgNoteL Cs4,24
		        psgNoteL D4,6
		  psgInst 00h
		        waitL    18
		  psgInst 0Bh
		        psgNoteL Cs4,24
		        psgNoteL D4,6
		  psgInst 00h
		        waitL    18
		  psgInst 0Bh
		        psgNoteL As3,24
		        psgNoteL A3,6
		  psgInst 00h
		        waitL    18
		  psgInst 0Bh
		        psgNoteL G3,24
		        psgNoteL F3,6
		  psgInst 00h
		        waitL    18
		  psgInst 0Bh
		        psgNoteL D3,24
		  setRelease 00h
		  psgInst 08h
		        psgNoteL A4,4
		        psgNote  As4
		        psgNote  A4
		        psgNote  As4
		        psgNote  A4
		        psgNote  As4
		        psgNote  A4
		        psgNote  As4
		        psgNote  A4
		        psgNote  As4
		        psgNote  A4
		        psgNote  As4
		        psgNote  A4
		        psgNote  As4
		        psgNote  A4
		        psgNote  As4
		        psgNote  A4
		        psgNote  As4
		        psgNote  A4
		        psgNote  As4
		        psgNote  A4
		        psgNote  As4
		        psgNote  A4
		        psgNote  As4
		        psgNote  A4
		        psgNote  As4
		        psgNote  A4
		        psgNote  As4
		        psgNote  A4
		        psgNote  As4
		        psgNote  A4
		        psgNote  As4
		        psgNote  A4
		        psgNote  As4
		        psgNote  A4
		        psgNote  As4
		        psgNote  A4
		        psgNote  As4
		        psgNote  A4
		        psgNote  As4
		        psgNote  A4
		        psgNote  As4
		        psgNote  A4
		        psgNote  As4
		        psgNote  A4
		  psgInst 00h
		        waitL    12
		mainLoopEnd
Music_4_Channel_7:
		  psgInst 00h
		  setRelease 00h
		  vibrato 04Ch
		        waitL    6
		mainLoopStart
		        waitL    12
		  psgInst 0Ah
		        psgNoteL G3,3
		        psgNoteL A3,2
		        psgNoteL B3,1
		        psgNoteL Cs4,2
		        psgNoteL Ds4,1
		        psgNoteL E4,2
		        psgNoteL Fs4,1
		        psgNoteL G4,6
		  psgInst 00h
		        waitL    30
		  psgInst 0Ah
		        psgNoteL G3,3
		        psgNoteL A3,2
		        psgNoteL As3,1
		        psgNoteL Cs4,2
		        psgNoteL D4,1
		        psgNoteL E4,2
		        psgNoteL Fs4,1
		        psgNoteL G4,6
		  psgInst 00h
		        waitL    18
		        waitL    12
		  psgInst 0Ah
		        psgNoteL G3,3
		        psgNoteL A3,2
		        psgNoteL B3,1
		        psgNoteL Cs4,2
		        psgNoteL Ds4,1
		        psgNoteL E4,2
		        psgNoteL Fs4,1
		        psgNoteL G4,6
		  psgInst 00h
		        waitL    30
		  psgInst 0Ah
		        psgNoteL G3,3
		        psgNoteL A3,2
		        psgNoteL As3,1
		        psgNoteL Cs4,2
		        psgNoteL D4,1
		        psgNoteL E4,2
		        psgNoteL Fs4,1
		        psgNoteL G4,6
		  psgInst 00h
		        waitL    18
		  psgInst 0Ah
		  setRelease 01h
		        psgNoteL A4,6
		  psgInst 00h
		        waitL    12
		  psgInst 0Ah
		        psgNoteL F4,6
		  setRelease 00h
		  psgInst 0Ah
		        psgNoteL F4,4
		        psgNote  Fs4
		        psgNote  F4
		        psgNote  Fs4
		        psgNote  F4
		        psgNote  Fs4
		        psgNote  F4
		        psgNote  Fs4
		        psgNote  F4
		        psgNote  Fs4
		        psgNote  F4
		        psgNote  Fs4
		        psgNote  F4
		        psgNote  Fs4
		        psgNote  F4
		        psgNote  Fs4
		        psgNote  F4
		        psgNote  Fs4
		        psgNote  F4
		        psgNote  Fs4
		        psgNote  F4
		        psgNote  Fs4
		        psgNote  F4
		        psgNote  Fs4
		        psgNote  F4
		        psgNote  Fs4
		        psgNote  F4
		        psgNote  Fs4
		        psgNote  F4
		        psgNote  Fs4
		        psgNote  F4
		        psgNote  Fs4
		        psgNote  F4
		        psgNote  Fs4
		        psgNote  F4
		        psgNote  Fs4
		        psgNote  F4
		        psgNote  Fs4
		        psgNote  F4
		        psgNote  Fs4
		  psgInst 00h
		        waitL    8
		        waitL    12
		  psgInst 0Ah
		        psgNoteL G3,3
		        psgNoteL A3,2
		        psgNoteL B3,1
		        psgNoteL C4,2
		        psgNoteL D4,1
		        psgNoteL Ds4,2
		        psgNoteL F4,1
		        psgNoteL G4,6
		  psgInst 00h
		        waitL    30
		  psgInst 0Ah
		        psgNoteL G3,3
		        psgNoteL A3,2
		        psgNoteL B3,1
		        psgNoteL Cs4,2
		        psgNoteL Ds4,1
		        psgNoteL E4,2
		        psgNoteL Fs4,1
		        psgNoteL G4,6
		  psgInst 00h
		        waitL    18
		        waitL    12
		  psgInst 0Ah
		        psgNoteL G3,3
		        psgNoteL A3,2
		        psgNoteL B3,1
		        psgNoteL C4,2
		        psgNoteL D4,1
		        psgNoteL Ds4,2
		        psgNoteL F4,1
		        psgNoteL G4,6
		  psgInst 00h
		        waitL    30
		  psgInst 0Ah
		        psgNoteL G3,3
		        psgNoteL A3,2
		        psgNoteL B3,1
		        psgNoteL Cs4,2
		        psgNoteL Ds4,1
		        psgNoteL E4,2
		        psgNoteL Fs4,1
		        psgNoteL G4,6
		  psgInst 00h
		        waitL    18
		  setRelease 01h
		  psgInst 0Ah
		        psgNoteL Ds5,6
		  psgInst 00h
		        waitL    12
		  psgInst 0Ah
		        psgNoteL B4,6
		  setRelease 00h
		  psgInst 0Ah
		        psgNoteL B4,4
		        psgNote  Cs5
		        psgNote  B4
		        psgNote  Cs5
		        psgNote  B4
		        psgNote  Cs5
		        psgNote  B4
		        psgNote  Cs5
		        psgNote  B4
		        psgNote  Cs5
		        psgNote  B4
		        psgNote  Cs5
		        psgNote  B4
		        psgNote  Cs5
		        psgNote  B4
		        psgNote  Cs5
		        psgNote  B4
		        psgNote  Cs5
		        psgNote  B4
		        psgNote  Cs5
		        psgNote  B4
		        psgNote  Cs5
		        psgNote  B4
		        psgNote  Cs5
		        psgNote  B4
		        psgNote  Cs5
		        psgNote  B4
		        psgNote  Cs5
		        psgNote  B4
		        psgNote  Cs5
		  psgInst 00h
		        waitL    48
		        waitL    96
		        wait
		        waitL    48
		  setRelease 01h
		  psgInst 0Ah
		        psgNoteL As4,18
		        psgNoteL A4,3
		        psgNote  Gs4
		        psgNoteL G4,18
		  setRelease 00h
		  psgInst 0Ah
		        psgNoteL A4,3
		        psgNote  G4
		        psgNoteL A4,4
		        psgNote  G4
		        psgNote  A4
		        psgNote  G4
		        psgNote  A4
		        psgNote  G4
		        psgNote  A4
		        psgNote  G4
		        psgNote  A4
		        psgNote  G4
		        psgNote  A4
		        psgNote  G4
		        psgNote  A4
		        psgNote  G4
		        psgNote  A4
		        psgNote  G4
		        psgNote  A4
		        psgNote  G4
		        psgNote  A4
		        psgNote  G4
		        psgNote  A4
		        psgNote  G4
		        psgNote  A4
		  psgInst 00h
		        wait
		        waitL    96
		        wait
		        waitL    48
		  psgInst 0Ah
		  setRelease 01h
		        psgNoteL A4,6
		  psgInst 00h
		        waitL    12
		  psgInst 0Ah
		        psgNoteL D5,6
		  setRelease 00h
		  psgInst 09h
		        psgNoteL D5,4
		        psgNote  Ds5
		        psgNote  D5
		        psgNote  Ds5
		        psgNote  D5
		        psgNote  Ds5
		        psgNote  D5
		        psgNote  Ds5
		        psgNote  D5
		        psgNote  Ds5
		        psgNote  D5
		        psgNote  Ds5
		        psgNote  D5
		        psgNote  Ds5
		        psgNote  D5
		        psgNote  Ds5
		        psgNote  D5
		        psgNote  Ds5
		        psgNote  D5
		        psgNote  Ds5
		        psgNote  D5
		        psgNote  Ds5
		        psgNote  D5
		        psgNote  Ds5
		        psgNote  D5
		        psgNote  Ds5
		        psgNote  D5
		        psgNote  Ds5
		        psgNote  D5
		  psgInst 00h
		        wait
		  psgInst 0Ah
		  setRelease 01h
		        psgNoteL G5,6
		  psgInst 00h
		        waitL    18
		  psgInst 0Ah
		        psgNoteL Cs5,6
		  psgInst 00h
		        waitL    42
		  psgInst 0Ah
		        psgNoteL G5,6
		  psgInst 00h
		        waitL    18
		  psgInst 0Ah
		        psgNoteL Cs5,6
		  psgInst 00h
		        waitL    42
		  psgInst 0Ah
		        psgNoteL G5,12
		        psgNote  Cs5
		        psgNoteL G5,6
		  psgInst 00h
		        waitL    18
		  psgInst 0Ah
		        psgNoteL Cs5,6
		  psgInst 00h
		        waitL    42
		  psgInst 0Ah
		        psgNoteL G5,6
		  psgInst 00h
		        waitL    18
		  psgInst 0Ah
		        psgNoteL Cs5,6
		  psgInst 00h
		        waitL    42
		  psgInst 0Ah
		        psgNoteL D5,6
		        psgNote  D5
		        psgNote  Cs5
		        psgNote  Cs5
		        psgNote  D5
		        psgNote  D5
		        psgNote  E5
		        psgNote  E5
		  setRelease 00h
		        psgNoteL Fs4,4
		        psgNote  G4
		        psgNote  Fs4
		        psgNote  G4
		        psgNote  Fs4
		        psgNote  G4
		        psgNote  Fs4
		        psgNote  G4
		        psgNote  Fs4
		        psgNote  G4
		        psgNote  Fs4
		        psgNote  G4
		        psgNote  Fs4
		        psgNote  G4
		        psgNote  Fs4
		        psgNote  G4
		        psgNote  Fs4
		        psgNote  G4
		        psgNote  Fs4
		        psgNote  G4
		        psgNote  Fs4
		        psgNote  G4
		        psgNote  Fs4
		        psgNote  G4
		        psgNote  Fs4
		        psgNote  G4
		        psgNote  Fs4
		        psgNote  G4
		        psgNote  Fs4
		        psgNote  G4
		        psgNote  Fs4
		        psgNote  G4
		        psgNote  Fs4
		        psgNote  G4
		        psgNote  Fs4
		        psgNote  G4
		  setRelease 01h
		        psgNoteL D4,3
		        psgNote  E4
		        psgNote  Fs4
		        psgNote  Gs4
		        psgNote  As4
		        psgNote  B4
		        psgNote  Cs5
		        psgNote  D5
		        psgNote  Cs5
		        psgNote  B4
		        psgNote  G4
		        psgNote  Fs4
		        psgNote  E4
		        psgNote  D4
		  psgInst 00h
		        waitL    30
		        waitL    66
		  psgInst 0Bh
		  setRelease 01h
		        psgNoteL B1,6
		        psgNoteL B1,96
		  psgInst 00h
		        waitL    24
		        waitL    66
		  psgInst 0Bh
		        psgNoteL Cs3,6
		        psgNoteL Cs3,48
		        psgNote  A2
		  psgInst 00h
		        waitL    24
		        waitL    66
		  psgInst 0Bh
		        psgNoteL D3,6
		        psgNoteL D3,96
		  psgInst 00h
		        waitL    24
		        waitL    66
		  psgInst 0Bh
		        psgNoteL Cs3,6
		        psgNoteL Cs3,48
		        psgNote  A2
		  psgInst 00h
		        waitL    24
		        waitL    66
		  psgInst 0Bh
		        psgNoteL F3,6
		        psgNoteL F3,96
		  psgInst 00h
		        waitL    24
		        waitL    66
		  psgInst 0Bh
		        psgNoteL Fs3,6
		        psgNoteL G3,48
		        psgNote  G3
		        psgNoteL G3,96
		        psgNote  G3
		  psgInst 0Ah
		        psgNoteL F3,6
		  psgInst 00h
		        waitL    18
		  psgInst 0Ah
		        psgNoteL As3,24
		        psgNoteL A3,6
		  psgInst 00h
		        waitL    18
		  psgInst 0Ah
		        psgNoteL G3,24
		        psgNoteL A3,6
		  psgInst 00h
		        waitL    18
		  psgInst 0Ah
		        psgNoteL As3,24
		        psgNoteL A3,6
		  psgInst 00h
		        waitL    18
		  psgInst 0Ah
		        psgNoteL G3,24
		        psgNoteL F3,6
		  psgInst 00h
		        waitL    18
		  psgInst 0Ah
		        psgNoteL As3,24
		        psgNoteL A3,6
		  psgInst 00h
		        waitL    18
		  psgInst 0Ah
		        psgNoteL Cs3,24
		        psgNoteL A2,6
		  psgInst 00h
		        waitL    18
		  psgInst 0Ah
		        psgNoteL Cs3,24
		        psgNoteL D3,6
		  psgInst 00h
		        waitL    18
		  psgInst 0Ah
		        psgNoteL G2,24
		  setRelease 00h
		  psgInst 09h
		        psgNoteL Cs4,6
		        psgNote  D4
		        psgNote  Cs4
		        psgNote  D4
		        psgNote  Cs4
		        psgNote  D4
		        psgNote  Cs4
		        psgNote  D4
		        psgNote  Cs4
		        psgNote  D4
		        psgNote  Cs4
		        psgNote  D4
		        psgNote  Cs4
		        psgNote  D4
		        psgNote  Cs4
		        psgNote  D4
		        psgNote  Cs4
		        psgNote  D4
		        psgNote  Cs4
		        psgNote  D4
		        psgNote  Cs4
		        psgNote  D4
		        psgNote  Cs4
		        psgNote  D4
		        psgNote  Cs4
		        psgNote  D4
		        psgNote  Cs4
		        psgNote  D4
		        psgNote  Cs4
		        psgNote  D4
		  psgInst 00h
		        waitL    12
		mainLoopEnd
Music_4_Channel_9:
		channel_end
