
; ASM FILE music43.asm :
; 0xD1AD..0xD6E5 : Music 43
Music_43:       db 0
		db 0
		db 0
		db 0CBh
		dw Music_43_Channel_0
		dw Music_43_Channel_1
		dw Music_43_Channel_2
		dw Music_43_Channel_3
		dw Music_43_Channel_4
		dw Music_43_Channel_5
		dw Music_43_Channel_6
		dw Music_43_Channel_7
		dw Music_43_Channel_9
		dw Music_43_Channel_9
Music_43_Channel_0:
		  inst 38
		  vol 0Ah
		  setRelease 01h
		  vibrato 04Ch
		  stereo 0C0h
		mainLoopStart
		        noteL D6,16
		        note  Cs6
		        note  B5
		  sustain
		        noteL Fs5,96
		  setRelease 01h
		  vibrato 040h
		        note  Fs5
		        waitL 16
		  vibrato 04Ch
		        note  Fs5
		        note  G5
		        noteL Fs5,48
		  sustain
		        noteL B5,96
		  setRelease 01h
		  vibrato 040h
		        note  B5
		        waitL 32
		  vibrato 04Ch
		        noteL B5,16
		  sustain
		        noteL E6,144
		  setRelease 02h
		  vibrato 040h
		        noteL E6,80
		  vibrato 04Ch
		        noteL D6,16
		        note  Cs6
		        note  D6
		        note  B5
		  sustain
		        noteL Cs6,144
		  setRelease 01h
		  vibrato 040h
		        note  Cs6
		  vibrato 04Ch
		        noteL D6,16
		        note  Cs6
		        note  B5
		  sustain
		        noteL Fs5,96
		  setRelease 01h
		  vibrato 040h
		        note  Fs5
		        waitL 16
		  vibrato 04Ch
		        note  Cs6
		        note  D6
		        note  Fs6
		        note  E6
		        note  D6
		  sustain
		        noteL B5,96
		  setRelease 01h
		  vibrato 040h
		        noteL B5,144
		  vibrato 04Ch
		        noteL D6,16
		        note  Cs6
		  setRelease 02h
		        note  B5
		  sustain
		        noteL B5,96
		  setRelease 01h
		  vibrato 040h
		        note  B5
		  vibrato 04Ch
		        noteL As5,48
		  vibrato 04Ch
		  sustain
		        noteL B5,144
		  setRelease 01h
		  vibrato 040h
		        noteL B5,96
		        waitL 48
		  vibrato 04Ch
		        waitL 144
		        wait
		        wait
		        wait
		        wait
		        wait
		        wait
		        wait
		        wait
		        wait
		        wait
		        wait
		        wait
		        wait
		        wait
		        wait
		mainLoopEnd
Music_43_Channel_1:
		  inst 38
		  vol 08h
		  setRelease 01h
		  vibrato 04Ch
		  stereo 0C0h
		mainLoopStart
		  sustain
		        noteL Fs5,144
		  vibrato 040h
		        note  Fs5
		        note  Fs5
		  setRelease 01h
		        note  Fs5
		  vibrato 04Ch
		  sustain
		        note  G5
		  vibrato 040h
		  setRelease 01h
		        note  G5
		  vibrato 04Ch
		        noteL E5,96
		        noteL G5,48
		        noteL Fs5,96
		        noteL E5,48
		        noteL Fs5,144
		        note  As5
		        note  B5
		        note  E5
		        noteL G5,96
		        noteL E5,48
		        noteL Fs5,96
		        noteL E5,48
		  sustain
		        noteL D5,144
		  vibrato 040h
		  setRelease 01h
		        note  D5
		  vibrato 04Ch
		  sustain
		        note  Cs5
		  vibrato 040h
		  setRelease 01h
		        note  Cs5
		  vibrato 04Ch
		  sustain
		        note  D5
		  vibrato 040h
		  setRelease 01h
		        note  D5
		  vibrato 04Ch
		  sustain
		        note  E5
		  vibrato 040h
		        note  E5
		        note  E5
		  setRelease 01h
		        note  E5
		  vibrato 04Ch
		  sustain
		        note  Fs5
		  vibrato 040h
		  setRelease 01h
		        note  Fs5
		  vibrato 04Ch
		  sustain
		        note  E5
		  vibrato 040h
		        note  E5
		        note  E5
		        note  E5
		        note  E5
		  setRelease 01h
		        note  E5
		mainLoopEnd
Music_43_Channel_2:
		  inst 38
		  vol 0Dh
		  setRelease 01h
		  vibrato 02Ch
		  stereo 0C0h
		mainLoopStart
		        noteL B3,144
		        note  As3
		        note  A3
		        note  Gs3
		  sustain
		        note  G3
		  setRelease 01h
		        note  G3
		  sustain
		        note  Fs3
		  setRelease 01h
		        note  Fs3
		        note  B3
		        note  As3
		        note  A3
		        note  Gs3
		        note  G3
		        note  Fs3
		  sustain
		        note  G3
		  setRelease 01h
		        note  G3
		  sustain
		        note  G3
		        note  G3
		        note  G3
		        note  G3
		        note  G3
		  setRelease 01h
		        note  G3
		  sustain
		        note  E3
		  setRelease 01h
		        note  E3
		  sustain
		        note  Fs3
		  setRelease 01h
		        note  Fs3
		  sustain
		        note  Gs3
		  setRelease 01h
		        note  Gs3
		  sustain
		        note  Fs3
		        note  Fs3
		        note  Fs3
		  setRelease 01h
		        note  Fs3
		mainLoopEnd
Music_43_Channel_3:
		mainLoopStart
		        waitL 16
		  inst 38
		  vol 06h
		  setRelease 01h
		  vibrato 04Ah
		  stereo 0C0h
		        note  D6
		        note  Cs6
		        note  B5
		  sustain
		        noteL Fs5,96
		  setRelease 01h
		  vibrato 040h
		        note  Fs5
		        waitL 16
		  vibrato 04Ah
		        note  Fs5
		        note  G5
		        noteL Fs5,48
		  sustain
		        noteL B5,96
		  setRelease 01h
		  vibrato 040h
		        note  B5
		        waitL 32
		  vibrato 04Ah
		        noteL B5,16
		  sustain
		        noteL E6,144
		  setRelease 02h
		  vibrato 040h
		        noteL E6,80
		  vibrato 04Ah
		        noteL D6,16
		        note  Cs6
		        note  D6
		        note  B5
		  sustain
		        noteL Cs6,144
		  setRelease 01h
		  vibrato 040h
		        note  Cs6
		  vibrato 04Ah
		        noteL D6,16
		        note  Cs6
		        note  B5
		  sustain
		        noteL Fs5,96
		  setRelease 01h
		  vibrato 040h
		        note  Fs5
		        waitL 16
		  vibrato 04Ch
		        note  Cs6
		        note  D6
		        note  Fs6
		        note  E6
		        note  D6
		  sustain
		        noteL B5,96
		  setRelease 01h
		  vibrato 040h
		        noteL B5,144
		  vibrato 04Ch
		        noteL D6,16
		        note  Cs6
		  setRelease 02h
		        note  B5
		  sustain
		        noteL B5,96
		  setRelease 01h
		  vibrato 040h
		        note  B5
		  vibrato 04Ch
		        noteL As5,32
		  inst 20
		  vol 09h
		  setRelease 01h
		  vibrato 04Ch
		  stereo 0C0h
		        noteL B5,16
		        note  A5
		        note  G5
		  sustain
		        noteL D5,96
		  setRelease 01h
		  vibrato 040h
		        note  D5
		        waitL 16
		  vibrato 04Ch
		        note  E5
		        note  Fs5
		        noteL E5,48
		  sustain
		        noteL A5,96
		  setRelease 01h
		  vibrato 040h
		        note  A5
		        waitL 16
		  vibrato 04Ch
		        note  B5
		        note  Cs6
		        note  D6
		        note  Cs6
		        note  B5
		  sustain
		        noteL Fs5,96
		  setRelease 01h
		  vibrato 040h
		        note  Fs5
		        waitL 16
		  vibrato 04Ch
		        note  Cs6
		        note  D6
		        noteL Cs6,48
		  sustain
		        noteL E6,96
		  setRelease 01h
		  vibrato 040h
		        note  E6
		        waitL 16
		  vibrato 04Ch
		        note  D6
		        note  E6
		        note  Fs6
		        note  E6
		        note  D6
		  sustain
		        noteL B5,96
		  setRelease 01h
		  vibrato 040h
		        note  B5
		        waitL 16
		  vibrato 04Ch
		        note  Cs6
		        note  D6
		        noteL Cs6,48
		  sustain
		        noteL E6,96
		  setRelease 01h
		  vibrato 040h
		        note  E6
		        waitL 16
		  vibrato 04Ch
		        note  D6
		        note  E6
		        note  Fs6
		        note  E6
		        note  D6
		  sustain
		        noteL B5,96
		  setRelease 01h
		  vibrato 040h
		        note  B5
		        waitL 16
		  vibrato 04Ch
		        note  Cs6
		        note  D6
		  sustain
		        noteL Cs6,144
		  vibrato 040h
		        note  Cs6
		        note  Cs6
		  setRelease 01h
		        note  Cs6
		  vibrato 04Ch
		mainLoopEnd
Music_43_Channel_4:
		  inst 38
		  vol 08h
		  setRelease 01h
		  vibrato 04Ch
		  stereo 0C0h
		mainLoopStart
		        noteL D6,144
		        note  Cs6
		        note  D6
		        note  B5
		  sustain
		        note  E6
		  vibrato 040h
		  setRelease 01h
		        note  E6
		  vibrato 04Ch
		        note  Cs6
		        note  As5
		        note  D6
		        note  Cs6
		        note  D6
		  vibrato 04Ch
		  sustain
		        note  B5
		  vibrato 040h
		        note  B5
		  setRelease 01h
		        noteL B5,96
		  vibrato 04Ch
		        noteL As5,48
		  sustain
		        noteL G5,144
		  vibrato 040h
		  setRelease 01h
		        note  G5
		  vibrato 04Ch
		  sustain
		        note  A5
		  vibrato 040h
		  setRelease 01h
		        note  A5
		  vibrato 04Ch
		  sustain
		        note  B5
		  vibrato 040h
		  setRelease 01h
		        note  B5
		  vibrato 04Ch
		  sustain
		        note  Cs6
		  vibrato 040h
		  setRelease 01h
		        note  Cs6
		  vibrato 04Ch
		  sustain
		        note  G5
		  vibrato 040h
		  setRelease 01h
		        note  G5
		  vibrato 04Ch
		  sustain
		        note  A5
		  vibrato 040h
		  setRelease 01h
		        note  A5
		  vibrato 04Ch
		  sustain
		        note  Gs5
		  vibrato 040h
		  setRelease 01h
		        note  Gs5
		  vibrato 04Ch
		  sustain
		        note  B5
		  vibrato 040h
		  setRelease 01h
		        note  B5
		  vibrato 04Ch
		  sustain
		        note  As5
		  vibrato 040h
		  setRelease 01h
		        note  As5
		mainLoopEnd
Music_43_Channel_5:
		channel_end
Music_43_Channel_6:
		  psgInst 09h
		  setRelease 0Ch
		  vibrato 04Ch
		mainLoopStart
		        psgNoteL B2,16
		        psgNote  Cs3
		        psgNote  D3
		        psgNote  Fs3
		        psgNote  B3
		        psgNote  D4
		        psgNote  Fs4
		        psgNote  B4
		        psgNote  Cs5
		        psgNote  D5
		        psgNote  Cs5
		        psgNote  As4
		        psgNote  Fs4
		        psgNote  D4
		        psgNote  Cs4
		        psgNote  As3
		        psgNote  Fs3
		        psgNote  D3
		        psgNote  B2
		        psgNote  Cs3
		        psgNote  D3
		        psgNote  Fs3
		        psgNote  B3
		        psgNote  D4
		        psgNote  Fs4
		        psgNote  B4
		        psgNote  Cs5
		        psgNote  D5
		        psgNote  Cs5
		        psgNote  B4
		        psgNote  Fs4
		        psgNote  D4
		        psgNote  Cs4
		        psgNote  B3
		        psgNote  Fs3
		        psgNote  D3
		        psgNote  B2
		        psgNote  Cs3
		        psgNote  D3
		        psgNote  G3
		        psgNote  B3
		        psgNote  D4
		        psgNote  G4
		        psgNote  B4
		        psgNote  Cs5
		        psgNote  D5
		        psgNote  Cs5
		        psgNote  B4
		        psgNote  G4
		        psgNote  D4
		        psgNote  B3
		        psgNote  G3
		        psgNote  D3
		        psgNote  B2
		        psgNote  As2
		        psgNote  Cs3
		        psgNote  E3
		        psgNote  Fs3
		        psgNote  As3
		        psgNote  Cs4
		        psgNote  Fs4
		        psgNote  As4
		        psgNote  Cs5
		        psgNote  E5
		        psgNote  Cs5
		        psgNote  As4
		        psgNote  Fs4
		        psgNote  E4
		        psgNote  Cs4
		        psgNote  As3
		        psgNote  Fs3
		        psgNote  Cs3
		        psgNote  B2
		        psgNote  Cs3
		        psgNote  D3
		        psgNote  Fs3
		        psgNote  B3
		        psgNote  D4
		        psgNote  Fs4
		        psgNote  B4
		        psgNote  Cs5
		        psgNote  D5
		        psgNote  Cs5
		        psgNote  As4
		        psgNote  Fs4
		        psgNote  D4
		        psgNote  Cs4
		        psgNote  As3
		        psgNote  Fs3
		        psgNote  D3
		        psgNote  B2
		        psgNote  Cs3
		        psgNote  D3
		        psgNote  Fs3
		        psgNote  B3
		        psgNote  D4
		        psgNote  Fs4
		        psgNote  B4
		        psgNote  Cs5
		        psgNote  B4
		        psgNote  Gs4
		        psgNote  E4
		        psgNote  D4
		        psgNote  B3
		        psgNote  Gs3
		        psgNote  E3
		        psgNote  D3
		        psgNote  B2
		        psgNote  B2
		        psgNote  Cs3
		        psgNote  D3
		        psgNote  Fs3
		        psgNote  B3
		        psgNote  Cs4
		        psgNote  D4
		        psgNote  E4
		        psgNote  Fs4
		        psgNote  G4
		        psgNote  Fs4
		        psgNote  E4
		        psgNote  Cs4
		        psgNote  B3
		        psgNote  G3
		        psgNote  E3
		        psgNote  Cs3
		        psgNote  As2
		  psgInst 088h
		        psgNoteL B2,48
		        psgNote  B2
		        psgNote  B2
		        psgNote  B2
		        psgNote  B2
		        psgNote  B2
		        psgNote  A2
		        psgNote  A2
		        psgNote  A2
		        psgNote  A2
		        psgNote  A2
		        psgNote  A2
		        psgNote  B2
		        psgNote  B2
		        psgNote  B2
		        psgNote  B2
		        psgNote  B2
		        psgNote  B2
		        psgNote  E3
		        psgNote  E3
		        psgNote  E3
		        psgNote  E3
		        psgNote  E3
		        psgNote  E3
		  psgInst 09h
		        psgNoteL B2,16
		        psgNote  D3
		        psgNote  G3
		        psgNote  B3
		        psgNote  D4
		        psgNote  Fs4
		        psgNote  G4
		        psgNote  B4
		        psgNote  D5
		        psgNote  Fs5
		        psgNote  D5
		        psgNote  B4
		        psgNote  G4
		        psgNote  Fs4
		        psgNote  D4
		        psgNote  B3
		        psgNote  G3
		        psgNote  D3
		        psgNote  E2
		        psgNote  A2
		        psgNote  Cs3
		        psgNote  E3
		        psgNote  A3
		        psgNote  Cs4
		        psgNote  E4
		        psgNote  A4
		        psgNote  Cs5
		        psgNote  E5
		        psgNote  Cs5
		        psgNote  A4
		        psgNote  E4
		        psgNote  Cs4
		        psgNote  A3
		        psgNote  E3
		        psgNote  Cs3
		        psgNote  A2
		        psgNote  B2
		        psgNote  D3
		        psgNote  Fs3
		        psgNote  Gs3
		        psgNote  B3
		        psgNote  D4
		        psgNote  Fs4
		        psgNote  Gs4
		        psgNote  B4
		        psgNote  D5
		        psgNote  B4
		        psgNote  Gs4
		        psgNote  Fs4
		        psgNote  D4
		        psgNote  B3
		        psgNote  Gs3
		        psgNote  Fs3
		        psgNote  D3
		        psgNote  Fs2
		        psgNote  B2
		        psgNote  Cs3
		        psgNote  E3
		        psgNote  G3
		        psgNote  B3
		        psgNote  Cs4
		        psgNote  E4
		        psgNote  G4
		        psgNote  B4
		        psgNote  G4
		        psgNote  E4
		        psgNote  Cs4
		        psgNote  B3
		        psgNote  G3
		        psgNote  E3
		        psgNote  Cs3
		        psgNote  B2
		        psgNote  Fs2
		        psgNote  As2
		        psgNote  Cs3
		        psgNote  E3
		        psgNote  G3
		        psgNote  As3
		        psgNote  Cs4
		        psgNote  E4
		        psgNote  G4
		        psgNote  As4
		        psgNote  G4
		        psgNote  E4
		        psgNote  Cs4
		        psgNote  As3
		        psgNote  G3
		        psgNote  E3
		        psgNote  Cs3
		        psgNote  As2
		mainLoopEnd
Music_43_Channel_7:
		  psgInst 00h
		  setRelease 04h
		  vibrato 04Ch
		        waitL 8
		  psgInst 096h
		mainLoopStart
		        psgNoteL B2,16
		        psgNote  Cs3
		        psgNote  D3
		        psgNote  Fs3
		        psgNote  B3
		        psgNote  D4
		        psgNote  Fs4
		        psgNote  B4
		        psgNote  Cs5
		        psgNote  D5
		        psgNote  Cs5
		        psgNote  As4
		        psgNote  Fs4
		        psgNote  D4
		        psgNote  Cs4
		        psgNote  As3
		        psgNote  Fs3
		        psgNote  D3
		        psgNote  B2
		        psgNote  Cs3
		        psgNote  D3
		        psgNote  Fs3
		        psgNote  B3
		        psgNote  D4
		        psgNote  Fs4
		        psgNote  B4
		        psgNote  Cs5
		        psgNote  D5
		        psgNote  Cs5
		        psgNote  B4
		        psgNote  Fs4
		        psgNote  D4
		        psgNote  Cs4
		        psgNote  B3
		        psgNote  Fs3
		        psgNote  D3
		        psgNote  B2
		        psgNote  Cs3
		        psgNote  D3
		        psgNote  G3
		        psgNote  B3
		        psgNote  D4
		        psgNote  G4
		        psgNote  B4
		        psgNote  Cs5
		        psgNote  D5
		        psgNote  Cs5
		        psgNote  B4
		        psgNote  G4
		        psgNote  D4
		        psgNote  B3
		        psgNote  G3
		        psgNote  D3
		        psgNote  B2
		        psgNote  As2
		        psgNote  Cs3
		        psgNote  E3
		        psgNote  Fs3
		        psgNote  As3
		        psgNote  Cs4
		        psgNote  Fs4
		        psgNote  As4
		        psgNote  Cs5
		        psgNote  E5
		        psgNote  Cs5
		        psgNote  As4
		        psgNote  Fs4
		        psgNote  E4
		        psgNote  Cs4
		        psgNote  As3
		        psgNote  Fs3
		        psgNote  Cs3
		        psgNote  B2
		        psgNote  Cs3
		        psgNote  D3
		        psgNote  Fs3
		        psgNote  B3
		        psgNote  D4
		        psgNote  Fs4
		        psgNote  B4
		        psgNote  Cs5
		        psgNote  D5
		        psgNote  Cs5
		        psgNote  As4
		        psgNote  Fs4
		        psgNote  D4
		        psgNote  Cs4
		        psgNote  As3
		        psgNote  Fs3
		        psgNote  D3
		        psgNote  B2
		        psgNote  Cs3
		        psgNote  D3
		        psgNote  Fs3
		        psgNote  B3
		        psgNote  D4
		        psgNote  Fs4
		        psgNote  B4
		        psgNote  Cs5
		        psgNote  B4
		        psgNote  Gs4
		        psgNote  E4
		        psgNote  D4
		        psgNote  B3
		        psgNote  Gs3
		        psgNote  E3
		        psgNote  D3
		        psgNote  B2
		        psgNote  B2
		        psgNote  Cs3
		        psgNote  D3
		        psgNote  Fs3
		        psgNote  B3
		        psgNote  Cs4
		        psgNote  D4
		        psgNote  E4
		        psgNote  Fs4
		        psgNote  G4
		        psgNote  Fs4
		        psgNote  E4
		        psgNote  Cs4
		        psgNote  B3
		        psgNote  G3
		        psgNote  E3
		        psgNote  Cs3
		        psgNoteL As2,8
		  psgInst 088h
		        psgNoteL D3,48
		        psgNote  D3
		        psgNote  D3
		        psgNote  D3
		        psgNote  D3
		        psgNote  D3
		        psgNote  E3
		        psgNote  E3
		        psgNote  E3
		        psgNote  E3
		        psgNote  E3
		        psgNote  E3
		        psgNote  Fs3
		        psgNote  Fs3
		        psgNote  Fs3
		        psgNote  Fs3
		        psgNote  Fs3
		        psgNote  Fs3
		        psgNote  A3
		        psgNote  A3
		        psgNote  A3
		        psgNote  A3
		        psgNote  A3
		        psgNoteL A3,56
		  psgInst 096h
		  setRelease 01h
		        psgNoteL B2,16
		        psgNote  D3
		        psgNote  G3
		        psgNote  B3
		        psgNote  D4
		        psgNote  Fs4
		        psgNote  G4
		        psgNote  B4
		        psgNote  D5
		        psgNote  Fs5
		        psgNote  D5
		        psgNote  B4
		        psgNote  G4
		        psgNote  Fs4
		        psgNote  D4
		        psgNote  B3
		        psgNote  G3
		        psgNote  D3
		        psgNote  E2
		        psgNote  A2
		        psgNote  Cs3
		        psgNote  E3
		        psgNote  A3
		        psgNote  Cs4
		        psgNote  E4
		        psgNote  A4
		        psgNote  Cs5
		        psgNote  E5
		        psgNote  Cs5
		        psgNote  A4
		        psgNote  E4
		        psgNote  Cs4
		        psgNote  A3
		        psgNote  E3
		        psgNote  Cs3
		        psgNote  A2
		        psgNote  B2
		        psgNote  D3
		        psgNote  Fs3
		        psgNote  Gs3
		        psgNote  B3
		        psgNote  D4
		        psgNote  Fs4
		        psgNote  Gs4
		        psgNote  B4
		        psgNote  D5
		        psgNote  B4
		        psgNote  Gs4
		        psgNote  Fs4
		        psgNote  D4
		        psgNote  B3
		        psgNote  Gs3
		        psgNote  Fs3
		        psgNote  D3
		        psgNote  Fs2
		        psgNote  B2
		        psgNote  Cs3
		        psgNote  E3
		        psgNote  G3
		        psgNote  B3
		        psgNote  Cs4
		        psgNote  E4
		        psgNote  G4
		        psgNote  B4
		        psgNote  G4
		        psgNote  E4
		        psgNote  Cs4
		        psgNote  B3
		        psgNote  G3
		        psgNote  E3
		        psgNote  Cs3
		        psgNote  B2
		        psgNote  Fs2
		        psgNote  As2
		        psgNote  Cs3
		        psgNote  E3
		        psgNote  G3
		        psgNote  As3
		        psgNote  Cs4
		        psgNote  E4
		        psgNote  G4
		        psgNote  As4
		        psgNote  G4
		        psgNote  E4
		        psgNote  Cs4
		        psgNote  As3
		        psgNote  G3
		        psgNote  E3
		        psgNote  Cs3
		        psgNote  As2
		mainLoopEnd
Music_43_Channel_9:
		channel_end
